# xmcd
#
# Track frame offsets:
#	150
#	2175
#	15237
#	27470
#	54110
#	74822
#	81637
#	105975
#	112690
#	118132
#	130547
#	139632
#	143860
#	151702
#	154127
#	165127
#	166350
#	169020
#	189647
#	206152
#	216485
#	240227
#	253542
#	341452
#
# Disc length: 4732 seconds
#
# Revision: 3
# Processed by: cddbd v1.5.2PL0 Copyright (c) Steve Scherf et al.
# Submitted via: EZCDAudioConverter 2.1.7.1
#
DISCID=3c127a18
DTITLE=Aphrodite's Child - 666
DYEAR=1900
DGENRE=
TTITLE0=The System
TTITLE1=Babylon
TTITLE2=Loud, Loud, Loud 
TTITLE3=The Four Horsemen
TTITLE4=The Lamb
TTITLE5=The Seventh Seal
TTITLE6=Aegian Sea
TTITLE7=Seven Bowls
TTITLE8=The Wakening Beast
TTITLE9=Lament
TTITLE10=The Marching Beast
TTITLE11=The Battle Of The Locusts
TTITLE12=Do It
TTITLE13=Tribulation
TTITLE14=The Beast
TTITLE15=Ofis 
TTITLE16=Seven Trumpets
TTITLE17=Altamont
TTITLE18=The Wedding Of The Lamb
TTITLE19=The Capture Of The Beast
TTITLE20=∞
TTITLE21=Hic Et Nunc
TTITLE22=All The Seats Were Occupied
TTITLE23=Break
EXTD=
EXTT0=
EXTT1=
EXTT2=
EXTT3=
EXTT4=
EXTT5=
EXTT6=
EXTT7=
EXTT8=
EXTT9=
EXTT10=
EXTT11=
EXTT12=
EXTT13=
EXTT14=
EXTT15=
EXTT16=
EXTT17=
EXTT18=
EXTT19=
EXTT20=
EXTT21=
EXTT22=
EXTT23=
PLAYORDER=
